<mxfile host="app.diagrams.net" agent="Mozilla/5.0 (X11; Linux x86_64) AppleWebKit/537.36 (KHTML, like Gecko) Chrome/126.0.0.0 Safari/537.36" version="24.7.17">
  <diagram name="Página-1" id="F77sNOj_ghX7AtMCGkkb">
    <mxGraphModel dx="1621" dy="724" grid="1" gridSize="10" guides="1" tooltips="1" connect="1" arrows="1" fold="1" page="1" pageScale="1" pageWidth="827" pageHeight="1169" math="0" shadow="0">
      <root>
        <mxCell id="0" />
        <mxCell id="1" parent="0" />
        <mxCell id="FBVL_0OAT9HQgVMhATRq-1" value="CURSOS" style="whiteSpace=wrap;html=1;" vertex="1" parent="1">
          <mxGeometry x="90" y="38" width="120" height="60" as="geometry" />
        </mxCell>
        <mxCell id="FBVL_0OAT9HQgVMhATRq-2" value="cod_curso&amp;nbsp; &amp;nbsp; nommbre&amp;nbsp; &amp;nbsp; descrip,&amp;nbsp; &amp;nbsp; horas&amp;nbsp; &amp;nbsp; coste" style="text;html=1;align=center;verticalAlign=middle;resizable=0;points=[];autosize=1;strokeColor=none;fillColor=none;" vertex="1" parent="1">
          <mxGeometry x="-20" width="280" height="30" as="geometry" />
        </mxCell>
        <mxCell id="FBVL_0OAT9HQgVMhATRq-3" value="EDICION CURSO" style="whiteSpace=wrap;html=1;" vertex="1" parent="1">
          <mxGeometry x="440" y="50" width="120" height="60" as="geometry" />
        </mxCell>
        <mxCell id="FBVL_0OAT9HQgVMhATRq-4" value="Lugar&amp;nbsp; &amp;nbsp; fecha&amp;nbsp; &amp;nbsp;horario" style="text;html=1;align=center;verticalAlign=middle;resizable=0;points=[];autosize=1;strokeColor=none;fillColor=none;" vertex="1" parent="1">
          <mxGeometry x="430" y="140" width="140" height="30" as="geometry" />
        </mxCell>
        <mxCell id="FBVL_0OAT9HQgVMhATRq-5" value="" style="endArrow=none;html=1;rounded=0;entryX=0;entryY=0.5;entryDx=0;entryDy=0;" edge="1" parent="1" target="FBVL_0OAT9HQgVMhATRq-1">
          <mxGeometry width="50" height="50" relative="1" as="geometry">
            <mxPoint x="20" y="68" as="sourcePoint" />
            <mxPoint x="430" y="350" as="targetPoint" />
          </mxGeometry>
        </mxCell>
        <mxCell id="FBVL_0OAT9HQgVMhATRq-6" value="" style="endArrow=none;html=1;rounded=0;" edge="1" parent="1">
          <mxGeometry width="50" height="50" relative="1" as="geometry">
            <mxPoint x="20" y="230" as="sourcePoint" />
            <mxPoint x="20" y="70" as="targetPoint" />
          </mxGeometry>
        </mxCell>
        <mxCell id="FBVL_0OAT9HQgVMhATRq-10" value="" style="endArrow=none;html=1;rounded=0;" edge="1" parent="1" source="FBVL_0OAT9HQgVMhATRq-12">
          <mxGeometry width="50" height="50" relative="1" as="geometry">
            <mxPoint x="20" y="230" as="sourcePoint" />
            <mxPoint x="160" y="230" as="targetPoint" />
          </mxGeometry>
        </mxCell>
        <mxCell id="FBVL_0OAT9HQgVMhATRq-13" value="" style="endArrow=none;html=1;rounded=0;" edge="1" parent="1" target="FBVL_0OAT9HQgVMhATRq-12">
          <mxGeometry width="50" height="50" relative="1" as="geometry">
            <mxPoint x="20" y="230" as="sourcePoint" />
            <mxPoint x="160" y="230" as="targetPoint" />
          </mxGeometry>
        </mxCell>
        <mxCell id="FBVL_0OAT9HQgVMhATRq-12" value="tiene&lt;div&gt;prerrequisito&lt;/div&gt;" style="rhombus;whiteSpace=wrap;html=1;" vertex="1" parent="1">
          <mxGeometry x="70" y="210" width="50" height="50" as="geometry" />
        </mxCell>
        <mxCell id="FBVL_0OAT9HQgVMhATRq-14" value="" style="endArrow=none;html=1;rounded=0;entryX=0.45;entryY=1;entryDx=0;entryDy=0;entryPerimeter=0;" edge="1" parent="1" target="FBVL_0OAT9HQgVMhATRq-1">
          <mxGeometry width="50" height="50" relative="1" as="geometry">
            <mxPoint x="150" y="230" as="sourcePoint" />
            <mxPoint x="340" y="350" as="targetPoint" />
          </mxGeometry>
        </mxCell>
        <mxCell id="FBVL_0OAT9HQgVMhATRq-15" value="(0,n)" style="text;html=1;align=center;verticalAlign=middle;resizable=0;points=[];autosize=1;strokeColor=none;fillColor=none;" vertex="1" parent="1">
          <mxGeometry x="45" y="38" width="50" height="30" as="geometry" />
        </mxCell>
        <mxCell id="FBVL_0OAT9HQgVMhATRq-16" value="(0,n)" style="text;html=1;align=center;verticalAlign=middle;resizable=0;points=[];autosize=1;strokeColor=none;fillColor=none;" vertex="1" parent="1">
          <mxGeometry x="100" y="98" width="50" height="30" as="geometry" />
        </mxCell>
        <mxCell id="FBVL_0OAT9HQgVMhATRq-19" value="intensivo&amp;nbsp; &amp;nbsp; mañana&amp;nbsp; &amp;nbsp;tarde" style="text;html=1;align=center;verticalAlign=middle;resizable=0;points=[];autosize=1;strokeColor=none;fillColor=none;" vertex="1" parent="1">
          <mxGeometry x="480" y="195" width="160" height="30" as="geometry" />
        </mxCell>
        <mxCell id="FBVL_0OAT9HQgVMhATRq-20" value="" style="endArrow=none;html=1;rounded=0;entryX=0.864;entryY=0.9;entryDx=0;entryDy=0;entryPerimeter=0;exitX=0.45;exitY=0.067;exitDx=0;exitDy=0;exitPerimeter=0;" edge="1" parent="1" source="FBVL_0OAT9HQgVMhATRq-19" target="FBVL_0OAT9HQgVMhATRq-4">
          <mxGeometry width="50" height="50" relative="1" as="geometry">
            <mxPoint x="290" y="400" as="sourcePoint" />
            <mxPoint x="340" y="350" as="targetPoint" />
          </mxGeometry>
        </mxCell>
        <mxCell id="FBVL_0OAT9HQgVMhATRq-21" value="" style="whiteSpace=wrap;html=1;fillColor=none;" vertex="1" parent="1">
          <mxGeometry x="430" y="40" width="140" height="80" as="geometry" />
        </mxCell>
        <mxCell id="FBVL_0OAT9HQgVMhATRq-22" value="" style="endArrow=none;html=1;rounded=0;entryX=0;entryY=0.5;entryDx=0;entryDy=0;exitX=1;exitY=0.5;exitDx=0;exitDy=0;" edge="1" parent="1" source="FBVL_0OAT9HQgVMhATRq-23" target="FBVL_0OAT9HQgVMhATRq-21">
          <mxGeometry width="50" height="50" relative="1" as="geometry">
            <mxPoint x="290" y="400" as="sourcePoint" />
            <mxPoint x="340" y="350" as="targetPoint" />
          </mxGeometry>
        </mxCell>
        <mxCell id="FBVL_0OAT9HQgVMhATRq-24" value="" style="endArrow=none;html=1;rounded=0;entryX=0;entryY=0.5;entryDx=0;entryDy=0;exitX=1;exitY=0.5;exitDx=0;exitDy=0;" edge="1" parent="1" source="FBVL_0OAT9HQgVMhATRq-1" target="FBVL_0OAT9HQgVMhATRq-23">
          <mxGeometry width="50" height="50" relative="1" as="geometry">
            <mxPoint x="210" y="68" as="sourcePoint" />
            <mxPoint x="430" y="80" as="targetPoint" />
          </mxGeometry>
        </mxCell>
        <mxCell id="FBVL_0OAT9HQgVMhATRq-23" value="tiene" style="rhombus;whiteSpace=wrap;html=1;" vertex="1" parent="1">
          <mxGeometry x="300" y="50" width="60" height="58" as="geometry" />
        </mxCell>
        <mxCell id="FBVL_0OAT9HQgVMhATRq-25" value="(1,n)" style="text;html=1;align=center;verticalAlign=middle;resizable=0;points=[];autosize=1;strokeColor=none;fillColor=none;" vertex="1" parent="1">
          <mxGeometry x="375" y="38" width="50" height="30" as="geometry" />
        </mxCell>
        <mxCell id="FBVL_0OAT9HQgVMhATRq-26" value="(1,1)" style="text;html=1;align=center;verticalAlign=middle;resizable=0;points=[];autosize=1;strokeColor=none;fillColor=none;" vertex="1" parent="1">
          <mxGeometry x="205" y="38" width="50" height="30" as="geometry" />
        </mxCell>
        <mxCell id="FBVL_0OAT9HQgVMhATRq-28" value="EMPLEADOS" style="whiteSpace=wrap;html=1;" vertex="1" parent="1">
          <mxGeometry x="210" y="350" width="120" height="60" as="geometry" />
        </mxCell>
        <mxCell id="FBVL_0OAT9HQgVMhATRq-29" value="cod_empleado&amp;nbsp; &amp;nbsp; nombre&amp;nbsp; &amp;nbsp;apellidos&amp;nbsp; &amp;nbsp;direccion&amp;nbsp; &amp;nbsp;telefono&amp;nbsp; &amp;nbsp;NIF&amp;nbsp; &amp;nbsp; fecha_nacimiento&amp;nbsp; &amp;nbsp; nacionalidad&amp;nbsp; &amp;nbsp;sexo&amp;nbsp; &amp;nbsp;firma&amp;nbsp; &amp;nbsp;salario&amp;nbsp; &amp;nbsp;" style="text;html=1;align=center;verticalAlign=middle;resizable=0;points=[];autosize=1;strokeColor=none;fillColor=none;" vertex="1" parent="1">
          <mxGeometry x="-50" y="430" width="670" height="30" as="geometry" />
        </mxCell>
        <mxCell id="FBVL_0OAT9HQgVMhATRq-30" value="" style="endArrow=none;html=1;rounded=0;entryX=0.5;entryY=1;entryDx=0;entryDy=0;" edge="1" parent="1" target="FBVL_0OAT9HQgVMhATRq-28">
          <mxGeometry width="50" height="50" relative="1" as="geometry">
            <mxPoint x="270" y="520" as="sourcePoint" />
            <mxPoint x="330" y="350" as="targetPoint" />
          </mxGeometry>
        </mxCell>
        <mxCell id="FBVL_0OAT9HQgVMhATRq-31" value="" style="triangle;whiteSpace=wrap;html=1;direction=south;" vertex="1" parent="1">
          <mxGeometry x="230" y="525" width="80" height="60" as="geometry" />
        </mxCell>
        <mxCell id="FBVL_0OAT9HQgVMhATRq-32" value="Capacitado" style="whiteSpace=wrap;html=1;" vertex="1" parent="1">
          <mxGeometry x="120" y="650" width="120" height="60" as="geometry" />
        </mxCell>
        <mxCell id="FBVL_0OAT9HQgVMhATRq-33" value="No capacitado" style="whiteSpace=wrap;html=1;" vertex="1" parent="1">
          <mxGeometry x="280" y="640" width="120" height="60" as="geometry" />
        </mxCell>
        <mxCell id="FBVL_0OAT9HQgVMhATRq-34" value="" style="endArrow=none;html=1;rounded=0;exitX=0.5;exitY=0;exitDx=0;exitDy=0;entryX=1;entryY=0.5;entryDx=0;entryDy=0;" edge="1" parent="1" source="FBVL_0OAT9HQgVMhATRq-32" target="FBVL_0OAT9HQgVMhATRq-31">
          <mxGeometry width="50" height="50" relative="1" as="geometry">
            <mxPoint x="280" y="520" as="sourcePoint" />
            <mxPoint x="330" y="470" as="targetPoint" />
          </mxGeometry>
        </mxCell>
        <mxCell id="FBVL_0OAT9HQgVMhATRq-35" value="" style="endArrow=none;html=1;rounded=0;entryX=0.583;entryY=-0.05;entryDx=0;entryDy=0;entryPerimeter=0;exitX=1;exitY=0.5;exitDx=0;exitDy=0;" edge="1" parent="1" source="FBVL_0OAT9HQgVMhATRq-31" target="FBVL_0OAT9HQgVMhATRq-33">
          <mxGeometry width="50" height="50" relative="1" as="geometry">
            <mxPoint x="280" y="520" as="sourcePoint" />
            <mxPoint x="330" y="470" as="targetPoint" />
          </mxGeometry>
        </mxCell>
        <mxCell id="FBVL_0OAT9HQgVMhATRq-36" value="" style="endArrow=none;html=1;rounded=0;exitX=0;exitY=0.5;exitDx=0;exitDy=0;" edge="1" parent="1" source="FBVL_0OAT9HQgVMhATRq-32">
          <mxGeometry width="50" height="50" relative="1" as="geometry">
            <mxPoint x="280" y="520" as="sourcePoint" />
            <mxPoint x="-70" y="680" as="targetPoint" />
          </mxGeometry>
        </mxCell>
        <mxCell id="FBVL_0OAT9HQgVMhATRq-37" value="" style="endArrow=none;html=1;rounded=0;" edge="1" parent="1">
          <mxGeometry width="50" height="50" relative="1" as="geometry">
            <mxPoint x="-60" y="680" as="sourcePoint" />
            <mxPoint x="-60" y="40" as="targetPoint" />
          </mxGeometry>
        </mxCell>
        <mxCell id="FBVL_0OAT9HQgVMhATRq-38" value="" style="endArrow=none;html=1;rounded=0;entryX=0;entryY=0;entryDx=0;entryDy=0;" edge="1" parent="1" target="FBVL_0OAT9HQgVMhATRq-1">
          <mxGeometry width="50" height="50" relative="1" as="geometry">
            <mxPoint x="-30" y="38" as="sourcePoint" />
            <mxPoint x="310" y="350" as="targetPoint" />
          </mxGeometry>
        </mxCell>
        <mxCell id="FBVL_0OAT9HQgVMhATRq-39" value="" style="rhombus;whiteSpace=wrap;html=1;" vertex="1" parent="1">
          <mxGeometry x="-60" y="20" width="40" height="40" as="geometry" />
        </mxCell>
      </root>
    </mxGraphModel>
  </diagram>
</mxfile>
